<?xml version="1.0" encoding="UTF-8"?>
<svg xmlns="http://www.w3.org/2000/svg" xmlns:xlink="http://www.w3.org/1999/xlink" version="1.1" viewBox="0 0 360 128">
  <defs>
    <style>
      .cls-1 {
        fill: none;
      }

      .cls-2 {
        fill: #9d9950;
      }

      .cls-3 {
        fill: #5a859e;
      }

      .cls-4 {
        clip-path: url(#clippath);
      }
    </style>
    <clipPath id="clippath">
      <rect class="cls-1" x="-1" y="15" width="361.9" height="96"/>
    </clipPath>
  </defs>
  <!-- Generator: Adobe Illustrator 28.7.1, SVG Export Plug-In . SVG Version: 1.2.0 Build 142)  -->
  <g>
    <g id="Layer_1">
      <polygon class="cls-3" points="43.4 81.9 11.4 38.7 11.4 81.9 7.9 81.9 7.9 33.7 7.9 28.4 43.3 76.6 43.3 42.9 46.7 42.9 46.7 81.9 43.4 81.9"/>
      <path class="cls-3" d="M54.4,81.9v-38.8h33.5v3.6h-29.9v31.7h29.9v3.6h-33.6ZM63.2,60.4h23.3v3.4h-23.3v-3.4Z"/>
      <g class="cls-4">
        <g>
          <path class="cls-3" d="M132.2,43h3.5v21.7c0,12-5.7,17.7-20.2,17.7s-20.2-5.7-20.2-17.7v-21.7h3.7v21.7c0,9.7,4.5,14.1,16.6,14.1s16.6-4.4,16.6-14.1v-21.7h0Z"/>
          <path class="cls-3" d="M181.9,81.9l-10.9-11.5c-.5,0-.9,0-1.1,0h-18.2v-3.3h18.2c6.8,0,10-3.6,10-10.4s-3.5-10-9.7-10h-23.7v35.2h-3.6v-38.8h27.3c8.4,0,13.3,5.2,13.3,13.7s-3,11.3-8.4,13l12,12.2h-5.2,0Z"/>
          <path class="cls-2" d="M191.7,81.9v-38.8h33.5v3.6h-29.9v31.7h29.9v3.6h-33.6ZM200.4,60.4h23.3v3.4h-23.3v-3.4Z"/>
          <polygon class="cls-2" points="252.4 84.9 227.7 43 232.1 43 254.4 81.1 276.6 43 280.8 43 256 84.9 254.2 87.8 252.4 84.9"/>
          <path class="cls-2" d="M315.1,81.9l-6.6-11.1h-22.4l1.8-3.1h18.8l-12.1-20.2-20.5,34.4h-4.1l23-38.2c.4-.7,1-1.2,1.8-1.2s1.3.4,1.8,1.2l22.9,38.2h-4.3,0Z"/>
          <polygon class="cls-2" points="324.7 81.9 324.7 43 328.3 43 328.3 78.3 356.4 78.3 356.4 81.9 324.7 81.9"/>
          <polygon class="cls-2" points="280.8 43 286.9 43 285.2 46.1 278.9 46.1 278.9 43 280.8 43"/>
          <polygon class="cls-3" points="7.4 81.9 1.3 81.9 3 78.8 9.3 78.8 9.3 81.9 7.4 81.9"/>
        </g>
      </g>
    </g>
  </g>
</svg>